<?xml version="1.0" encoding="UTF-8"?>
<!DOCTYPE svg PUBLIC "-//W3C//DTD SVG 1.1//EN" "http://www.w3.org/Graphics/SVG/1.1/DTD/svg11.dtd">
<svg xmlns="http://www.w3.org/2000/svg" version="1.1" width="93px" height="50px" style="shape-rendering:geometricPrecision; text-rendering:geometricPrecision; image-rendering:optimizeQuality; fill-rule:evenodd; clip-rule:evenodd" xmlns:xlink="http://www.w3.org/1999/xlink">
<g><path style="opacity:0.85" fill="#a30000" d="M 54.5,-0.5 C 59.8333,-0.5 65.1667,-0.5 70.5,-0.5C 78.3928,0.914335 85.7262,3.91433 92.5,8.5C 92.5,8.83333 92.5,9.16667 92.5,9.5C 84.5604,6.80754 76.3937,5.14088 68,4.5C 63.8112,4.81269 59.6445,5.31269 55.5,6C 43.9458,10.0136 32.1124,12.8469 20,14.5C 12.8024,14.1587 5.96902,12.492 -0.5,9.5C -0.5,9.16667 -0.5,8.83333 -0.5,8.5C 6.13836,9.49795 12.805,9.66462 19.5,9C 31.1564,5.27301 42.8231,2.10635 54.5,-0.5 Z"/></g>
<g><path style="opacity:0.647" fill="#000000" d="M 18.5,35.5 C 18.1667,35.5 17.8333,35.5 17.5,35.5C 8.54445,33.4292 6.04445,28.0959 10,19.5C 13.719,16.0977 17.8857,15.5977 22.5,18C 26.0871,22.5504 26.4204,27.3838 23.5,32.5C 21.8554,33.6963 20.1887,34.6963 18.5,35.5 Z M 14.5,19.5 C 19.4015,18.9006 22.0682,21.0673 22.5,26C 18.5442,34.7455 14.8775,34.5788 11.5,25.5C 12.1286,23.2592 13.1286,21.2592 14.5,19.5 Z"/></g>
<g><path style="opacity:0.669" fill="#000000" d="M 34.5,16.5 C 35.8221,16.33 36.9887,16.6634 38,17.5C 39,21.5 40,25.5 41,29.5C 42.1566,25.2177 42.9899,20.8843 43.5,16.5C 45.1439,16.2865 46.6439,16.6198 48,17.5C 49,21.5 50,25.5 51,29.5C 52,25.5 53,21.5 54,17.5C 55.0113,16.6634 56.1779,16.33 57.5,16.5C 56.1667,22.5 54.8333,28.5 53.5,34.5C 51.8333,34.5 50.1667,34.5 48.5,34.5C 47.8297,30.1491 46.9964,25.8157 46,21.5C 45,25.5 44,29.5 43,33.5C 41.6439,34.3802 40.1439,34.7135 38.5,34.5C 37.1667,28.5 35.8333,22.5 34.5,16.5 Z"/></g>
<g><path style="opacity:0.727" fill="#000000" d="M 67.5,16.5 C 81.0643,14.8885 85.3976,20.3885 80.5,33C 76.3004,34.3674 71.9671,34.8674 67.5,34.5C 67.5,28.5 67.5,22.5 67.5,16.5 Z M 70.5,19.5 C 79.3071,19.4651 81.6405,23.2985 77.5,31C 75.444,31.3108 73.444,31.8108 71.5,32.5C 70.5078,28.2172 70.1744,23.8839 70.5,19.5 Z"/></g>
<g><path style="opacity:0.853" fill="#a40000" d="M 92.5,43.5 C 92.5,43.8333 92.5,44.1667 92.5,44.5C 88.3038,46.7833 83.9705,48.4499 79.5,49.5C 74.5,49.5 69.5,49.5 64.5,49.5C 54.6998,46.4057 44.6998,43.5724 34.5,41C 22.3718,39.3522 10.7051,40.8522 -0.5,45.5C -0.5,44.8333 -0.5,44.1667 -0.5,43.5C 5.13281,39.851 11.1328,37.1843 17.5,35.5C 17.8333,35.5 18.1667,35.5 18.5,35.5C 26.5169,34.1673 34.5169,34.334 42.5,36C 55.2812,40.0943 68.2812,43.261 81.5,45.5C 85.1796,44.8305 88.8463,44.1638 92.5,43.5 Z"/></g>
</svg>
